<?xml version="1.0" standalone="no"?>
<!DOCTYPE svg PUBLIC "-//W3C//DTD SVG 20010904//EN"
 "http://www.w3.org/TR/2001/REC-SVG-20010904/DTD/svg10.dtd">
<svg version="1.0" xmlns="http://www.w3.org/2000/svg"
 width="265.000000pt" height="135.000000pt" viewBox="0 0 265.000000 135.000000"
 preserveAspectRatio="xMidYMid meet">

<g transform="translate(0.000000,135.000000) scale(0.100000,-0.100000)"
fill="#000000" stroke="none">
<path d="M122 1298 c-7 -7 -12 -42 -12 -85 0 -58 3 -73 15 -73 12 0 15 14 15
65 l0 65 275 0 275 0 2 -197 c2 -124 7 -198 13 -198 15 0 19 403 4 421 -16 19
-568 21 -587 2z"/>
<path d="M810 1262 l-24 -8 3 -214 c2 -128 7 -220 13 -227 13 -16 54 -17 64
-2 4 6 6 54 5 105 -2 90 -1 94 19 94 40 0 58 -20 86 -92 39 -104 75 -134 125
-108 24 14 25 50 0 57 -10 2 -31 31 -47 65 -16 33 -39 68 -52 78 -22 18 -22
19 -3 25 30 9 69 61 77 99 8 44 -12 85 -54 109 -35 21 -167 32 -212 19z m140
-32 c25 -13 43 -71 34 -115 -8 -43 -45 -75 -88 -75 l-31 0 3 100 3 100 30 0
c17 0 39 -4 49 -10z"/>
<path d="M170 1243 c-6 -123 -4 -603 2 -615 8 -16 28 -18 198 -18 103 0 195 3
204 6 8 3 12 12 9 20 -4 11 -40 14 -194 14 -155 0 -189 3 -189 14 0 21 24 26
89 20 81 -9 136 17 179 82 37 58 58 72 117 81 52 7 57 -4 28 -56 -17 -29 -17
-31 5 -76 22 -45 22 -84 0 -112 -6 -8 -75 -11 -241 -10 l-232 2 -5 248 c-3
155 -9 247 -15 247 -15 0 -19 -498 -4 -516 9 -11 61 -14 260 -14 l248 0 26
-37 c14 -21 25 -50 25 -65 0 -15 4 -38 10 -52 9 -24 6 -27 -25 -40 -41 -17
-40 -11 -18 -174 21 -161 22 -162 146 -162 77 0 97 3 110 17 10 12 21 66 33
157 l18 138 -27 20 c-37 27 -38 80 -2 104 24 16 34 44 15 44 -22 0 -59 -24
-68 -45 -6 -13 -8 -40 -5 -59 5 -34 4 -36 -21 -36 -22 0 -26 4 -26 29 0 47 38
155 70 199 33 46 37 62 16 62 -37 0 -104 -133 -115 -230 -6 -51 -8 -55 -33
-58 -25 -3 -28 0 -28 28 0 18 9 45 21 61 21 29 21 51 4 106 -6 18 -1 25 32 41
25 14 46 35 62 66 25 49 52 63 96 52 14 -4 31 -17 37 -30 8 -20 7 -30 -10 -53
-26 -36 -35 -74 -23 -92 12 -18 31 -5 31 22 0 12 9 36 20 52 35 53 23 103 -32
131 -45 24 -90 11 -131 -36 -38 -45 -57 -39 -57 16 0 43 -41 92 -81 96 l-31 3
1 157 c1 86 -1 179 -5 207 l-7 51 -243 0 c-134 0 -244 -3 -244 -7z m460 -193
l0 -170 -41 0 c-61 0 -104 -25 -140 -81 -42 -66 -70 -79 -169 -79 l-80 0 0
250 0 250 215 0 215 0 0 -170z m101 -272 c4 -6 10 -29 13 -52 4 -22 14 -49 23
-58 13 -15 14 -21 4 -31 -9 -9 -16 -7 -31 13 -16 21 -21 22 -29 11 -6 -9 -6
-22 0 -32 5 -10 9 -32 9 -49 0 -17 5 -40 10 -51 6 -11 7 -26 2 -34 -6 -12 -15
-5 -41 35 -30 46 -32 54 -26 105 6 42 4 61 -9 80 -32 49 -12 91 39 81 16 -4
32 -11 36 -18z m179 -478 c0 -29 -17 -163 -26 -207 -4 -22 -9 -23 -94 -23 -50
0 -90 3 -90 8 0 4 -9 62 -19 130 l-18 122 124 0 123 0 0 -30z"/>
<path d="M273 1175 c-11 -8 -24 -26 -27 -41 -14 -52 51 -107 97 -82 52 27 61
75 22 113 -27 28 -61 32 -92 10z m65 -27 c19 -19 14 -56 -8 -63 -41 -13 -69
43 -32 64 22 13 26 13 40 -1z"/>
<path d="M1240 1132 c-66 -33 -101 -121 -81 -206 32 -137 202 -171 278 -57 19
27 23 48 23 106 0 58 -4 79 -23 106 -27 41 -79 69 -127 69 -19 0 -51 -8 -70
-18z m117 -39 c14 -21 18 -48 18 -118 0 -108 -17 -145 -65 -145 -48 0 -65 37
-65 145 0 70 4 97 18 118 24 37 70 37 94 0z"/>
<path d="M1516 1128 c-21 -30 -20 -36 7 -40 21 -3 22 -7 25 -132 1 -75 7 -135
14 -143 13 -16 54 -17 64 -2 3 6 6 61 5 122 -1 96 1 117 19 145 11 18 28 32
39 32 37 0 46 -27 50 -159 1 -69 8 -132 14 -139 6 -7 22 -12 36 -10 26 3 26 4
23 81 -5 143 22 227 74 227 32 0 45 -55 43 -180 -1 -67 3 -105 11 -115 14 -17
51 -20 66 -6 5 6 7 64 4 140 -4 111 -8 134 -26 158 -39 53 -102 56 -147 7
l-24 -26 -31 31 c-44 45 -100 40 -145 -13 -14 -16 -20 -18 -24 -7 -10 24 -42
51 -62 51 -11 0 -27 -10 -35 -22z"/>
<path d="M2141 1132 c-43 -22 -56 -42 -47 -76 7 -29 47 -50 77 -41 15 5 16 10
8 35 -15 41 3 70 42 70 25 0 33 -6 45 -35 22 -53 19 -85 -9 -85 -44 0 -124
-30 -151 -56 -30 -31 -36 -93 -11 -118 38 -38 109 -31 152 14 33 36 41 37 45
8 2 -12 15 -29 31 -38 24 -13 30 -13 54 0 36 20 42 47 11 52 -22 3 -23 8 -28
108 -3 58 -11 115 -19 128 -27 49 -135 68 -200 34z m135 -194 c-7 -38 -52 -88
-78 -88 -9 0 -22 9 -28 20 -22 41 30 99 89 100 21 0 23 -3 17 -32z"/>
<path d="M1246 688 c-18 -25 -13 -38 15 -38 52 0 149 -65 149 -100 0 -14 -48
-65 -109 -115 l-24 -20 17 32 c22 45 20 77 -8 110 -22 25 -31 28 -88 28 -71 0
-117 -24 -143 -75 -20 -39 -19 -117 3 -159 56 -110 226 -144 339 -68 63 43 88
93 89 180 1 59 5 72 27 95 40 42 58 82 46 104 -15 28 -31 21 -64 -27 l-30 -45
-34 40 c-61 74 -154 103 -185 58z m-10 -153 c22 -33 12 -79 -26 -127 -17 -20
-30 -41 -30 -47 0 -21 96 21 197 85 29 18 54 30 57 26 9 -15 -12 -105 -31
-129 -38 -52 -70 -68 -133 -68 -48 0 -63 4 -85 25 -39 35 -55 80 -55 148 0 45
5 66 21 86 26 34 63 34 85 1z"/>
<path d="M1766 700 c-74 -23 -121 -111 -121 -226 1 -162 84 -250 218 -230 83
13 140 72 107 111 -21 26 -57 19 -65 -12 -15 -63 -75 -91 -122 -58 -33 23 -47
80 -47 190 0 147 27 205 95 205 30 0 69 -40 69 -71 0 -24 32 -25 54 -3 60 59
-77 127 -188 94z"/>
<path d="M2130 688 c-68 -35 -95 -95 -95 -213 0 -118 27 -178 95 -212 97 -50
196 -16 241 82 22 47 26 191 8 246 -34 102 -150 147 -249 97z m128 -25 c11
-10 25 -33 31 -52 14 -44 13 -225 -3 -276 -24 -80 -103 -86 -140 -12 -20 42
-28 199 -13 268 16 79 77 113 125 72z"/>
<path d="M105 503 c-36 -9 -65 -44 -65 -79 0 -39 32 -74 67 -74 31 0 30 -15
-12 -175 -30 -120 -32 -157 -7 -141 6 4 16 31 23 62 13 60 16 62 100 92 l56
19 64 -21 c35 -11 69 -24 75 -28 6 -4 16 -32 23 -62 7 -31 17 -58 23 -62 27
-17 25 21 -7 146 -19 73 -35 139 -35 146 0 7 16 18 35 24 39 13 55 35 55 75 0
38 -15 61 -47 73 -29 10 -313 14 -348 5z m349 -49 c19 -18 20 -28 6 -55 -10
-18 -23 -19 -185 -19 -144 0 -176 3 -189 16 -20 20 -20 38 0 58 23 24 345 24
368 0z m-84 -121 c0 -5 3 -18 6 -30 5 -19 -1 -23 -50 -39 -53 -17 -59 -17
-111 0 -30 9 -55 20 -55 24 0 4 3 17 6 30 6 21 11 22 105 22 55 0 99 -3 99 -7z
m-182 -97 c23 -12 23 -12 -12 -23 -36 -11 -41 -8 -30 21 7 19 12 19 42 2z
m209 -32 c-3 -3 -18 1 -34 9 l-28 16 25 9 c20 8 27 6 34 -9 5 -11 7 -22 3 -25z"/>
<path d="M2486 308 c-13 -19 -14 -25 -2 -43 7 -11 24 -20 36 -20 12 0 29 9 36
20 12 18 11 24 -2 43 -8 12 -24 22 -34 22 -10 0 -26 -10 -34 -22z"/>
</g>
</svg>
